<svg id="Layer_1" data-name="Layer 1" xmlns="http://www.w3.org/2000/svg" viewBox="0 0 140.17 76.72"><defs><style>.cls-1{fill:#f3f2f2;}</style></defs><path class="cls-1" d="M58.8,55l-18,20.5a3.83,3.83,0,0,1-4.4.9L34,75.27a11.15,11.15,0,0,1-6.4-11.5l2.3-19.3A1.86,1.86,0,0,1,32.4,43l25.7,9.1a1.76,1.76,0,0,1,.7,2.9M0,13.07c0,24.3,117,51,125.8,51,5,0,10.6-1.1,10.6-5.7,0-1.5-1.8-3.7-4.9-6.4h0l8.2-14.6a3.73,3.73,0,0,0-1.9-5.3l-1.4-.6a9.49,9.49,0,0,0-7.9.4l-14.9,7.9c-5.8-3.4-12.4-7-19.3-10.6l29-18.8a3.74,3.74,0,0,0,0-6.3l-2.4-1.5a16.85,16.85,0,0,0-13.3-2L59.3,13.27c-15.1-6-28.7-10.1-36.8-10.1-2.2,0-4.3.1-6.4.2L30.7,10l.3,4.9L8.5,4.47C3.3,5.87,0,8.27,0,13.07"/></svg>